<svg width="1256" height="761" viewBox="0 0 1256 761" fill="none" xmlns="http://www.w3.org/2000/svg">
<path d="M0.55603 448.796C0.55603 448.796 124.758 230.3 306.457 494.8C348.969 556.715 380.051 717.93 499.68 724.82C499.68 724.82 334.603 840.772 228.29 632.812C194.953 567.621 145.489 428.095 0.55603 448.796Z" fill="#EAEAFF"/>
<path d="M235.18 262.463C235.18 262.463 371.492 186.057 499.68 506.293C538.887 604.234 658.392 851.308 860.791 724.79C860.791 724.79 755.931 704.676 619.278 407.365C576.425 314.121 393.861 48.5394 235.149 262.432L235.18 262.463Z" fill="#EAEAFF"/>
<path d="M446.787 73.8737C446.787 73.8737 580.195 2.56591 738.908 322.277C738.908 322.277 1044.81 947.92 1194.34 637.385C1194.34 637.385 1058.65 637.385 911.431 338.374C852.388 218.467 697.507 -156.146 446.787 73.8737Z" fill="#EAEAFF"/>
<path d="M1255.92 433.163C1255.92 488.806 1237.94 540.279 1207.41 582.112C1203.3 581.988 1170.03 579.671 1120.47 543.987C1146.49 504.285 1161.63 456.767 1161.63 405.696C1161.63 308.096 1106.32 223.349 1025.25 181.207C1154.52 192.453 1255.89 300.959 1255.89 433.163H1255.92Z" fill="#EAEAFF"/>
</svg>
