<svg width="28" height="28" viewBox="0 0 28 28" fill="none" xmlns="http://www.w3.org/2000/svg">
<path fill-rule="evenodd" clip-rule="evenodd" d="M14.2224 0.145264C21.7822 0.145264 27.9097 6.27272 27.9097 13.8325C27.9097 21.3923 21.7822 27.5198 14.2224 27.5198C6.66262 27.5198 0.535156 21.3923 0.535156 13.8325C0.535156 6.27272 6.66262 0.145264 14.2224 0.145264Z" fill="#F0B90B"/>
<path d="M8.05782 13.8325L8.06769 17.4517L11.1429 19.2613V21.3802L6.26794 18.521V12.7741L8.05782 13.8325ZM8.05782 10.2133V12.3223L6.26685 11.2628V9.15381L8.05782 8.09436L9.85756 9.15381L8.05782 10.2133ZM12.4272 9.15381L14.2182 8.09436L16.0179 9.15381L14.2182 10.2133L12.4272 9.15381Z" fill="white"/>
<path d="M9.35181 16.7015V14.5826L11.1428 15.6421V17.7511L9.35181 16.7015ZM12.4271 20.0203L14.218 21.0797L16.0178 20.0203V22.1293L14.218 23.1887L12.4271 22.1293V20.0203ZM18.5863 9.15381L20.3773 8.09436L22.177 9.15381V11.2628L20.3773 12.3223V10.2133L18.5863 9.15381ZM20.3773 17.4517L20.3872 13.8325L22.1781 12.773V18.5199L17.3031 21.3791V19.2602L20.3773 17.4517Z" fill="white"/>
<path d="M19.0931 16.7015L17.3021 17.7511V15.6421L19.0931 14.5826V16.7015Z" fill="white"/>
<path d="M19.093 10.9635L19.1029 13.0824L16.0189 14.892V18.52L14.2279 19.5696L12.4369 18.52V14.892L9.3529 13.0824V10.9635L11.1515 9.90406L14.2169 11.7224L17.3009 9.90406L19.1007 10.9635H19.093ZM9.35181 7.34538L14.218 4.47632L19.093 7.34538L17.302 8.40482L14.218 6.58644L11.1428 8.40482L9.35181 7.34538Z" fill="white"/>
</svg>
