<svg width="15" height="15" viewBox="0 0 15 15" fill="none" xmlns="http://www.w3.org/2000/svg">
<path d="M1.50772 14.8911C1.15858 14.9114 0.815197 14.7953 0.549983 14.5673C0.0269589 14.0412 0.0269589 13.1915 0.549983 12.6653L12.0025 1.21279C12.5465 0.703755 13.4001 0.732052 13.9091 1.27604C14.3694 1.76797 14.3963 2.52408 13.9719 3.04737L2.45195 14.5673C2.19018 14.792 1.85228 14.9079 1.50772 14.8911Z" fill="#D1D0D0"/>
<path d="M12.9468 14.8912C12.5929 14.8897 12.2538 14.7492 12.0025 14.5L0.549946 3.04738C0.0653915 2.48154 0.131269 1.62997 0.697116 1.14537C1.20215 0.712876 1.94697 0.712876 2.45196 1.14537L13.9719 12.5979C14.5158 13.1071 14.5439 13.9607 14.0348 14.5046C14.0145 14.5262 13.9936 14.5472 13.9719 14.5674C13.8324 14.6888 13.6694 14.7801 13.493 14.8358C13.3166 14.8915 13.1307 14.9103 12.9468 14.8912Z" fill="#D1D0D0"/>
</svg>

