<svg width="29" height="25" viewBox="0 0 29 25" fill="none" xmlns="http://www.w3.org/2000/svg">
<path fill-rule="evenodd" clip-rule="evenodd" d="M5.8746 0.754574L0.917839 11.1663C0.898977 11.205 0.893 11.2487 0.900782 11.2911C0.908563 11.3335 0.929696 11.3722 0.961088 11.4017L14.3481 24.2297C14.3861 24.2662 14.4368 24.2866 14.4895 24.2866C14.5422 24.2866 14.5928 24.2662 14.6308 24.2297L28.0179 11.4025C28.0493 11.373 28.0704 11.3343 28.0782 11.2919C28.086 11.2495 28.08 11.2058 28.0611 11.1671L23.1044 0.755375C23.0884 0.720408 23.0626 0.690786 23.0302 0.670051C22.9979 0.649315 22.9602 0.638342 22.9217 0.638443H6.05881C6.02018 0.637963 5.98223 0.648671 5.94954 0.669277C5.91686 0.689883 5.89083 0.719507 5.8746 0.754574Z" fill="#50AF95"/>
<path fill-rule="evenodd" clip-rule="evenodd" d="M16.2094 12.2355C16.1133 12.2427 15.6168 12.2723 14.5091 12.2723C13.6281 12.2723 13.0026 12.2459 12.7832 12.2355C9.37857 12.0857 6.83732 11.493 6.83732 10.7834C6.83732 10.0739 9.37857 9.48199 12.7832 9.32981V11.6452C13.0058 11.6612 13.6434 11.6989 14.5244 11.6989C15.5815 11.6989 16.1109 11.6548 16.2062 11.646V9.33142C19.6037 9.48279 22.1393 10.0755 22.1393 10.7834C22.1393 11.4914 19.6045 12.0841 16.2062 12.2347L16.2094 12.2355ZM16.2094 9.09195V7.02002H20.9508V3.86047H8.04187V7.02002H12.7824V9.09115C8.92927 9.26815 6.03162 10.0314 6.03162 10.946C6.03162 11.8607 8.92927 12.6231 12.7824 12.8009V19.4404H16.2086V12.7985C20.053 12.6215 22.9458 11.8591 22.9458 10.9452C22.9458 10.0314 20.0554 9.26895 16.2086 9.09115L16.2094 9.09195Z" fill="white"/>
</svg>
